#N canvas 0 22 1280 681 10;
#X obj 493 -124 adc~;
#X obj 507 -73 +~;
#X obj 423 -29 fiddle~ 4096;
#X floatatom 321 127 5 0 0 0 - - -, f 5;
#X obj 520 -42 env~;
#X floatatom 534 3 5 0 0 0 - - -, f 5;
#X msg 489 851 1;
#X obj 321 192 int;
#X obj 270 1080 readsf~ 2 44100;
#X obj 286 1205 dac~;
#X obj 357 1110 bng 15 250 50 0 empty empty empty 17 7 0 10 -262144
-1 -1;
#X msg -222 858 1, f 4;
#X msg -54 855 1;
#X msg -139 858 1;
#X msg 192 851 1;
#X msg 816 838 1;
#X msg 377 851 1;
#X msg 603 843 1;
#X msg 111 853 1;
#X msg 279 849 1;
#X msg 31 857 1;
#X msg 705 847 1;
#X obj 321 163 - 0.5;
#X obj 168 134 route 0 1;
#X floatatom 276 140 5 0 0 0 - - -, f 5;
#X floatatom 321 222 5 0 0 0 - - -, f 5;
#X floatatom 360 57 5 0 0 0 - - -, f 5;
#X msg 217 213 0;
#X obj 344 -8 bng 15 250 50 0 empty empty empty 17 7 0 10 -262144 -1
-1;
#X obj 529 41 > 60;
#X obj 490 76 route 1 0;
#X obj 533 132 bng 15 250 50 0 empty empty empty 17 7 0 10 -262144
-1 -1;
#X obj 446 29 bng 15 250 50 0 empty empty empty 17 7 0 10 -262144 -1
-1;
#X floatatom 395 105 5 0 0 0 - - -, f 5;
#X msg 446 62 0;
#X msg 321 103;
#X obj -221 18 loadbang;
#X msg -221 51 1;
#X msg -221 79 \; pd dsp \$1;
#X obj 218 -38 bonk~;
#X obj 221 31 unpack f f f;
#X floatatom 261 85 5 0 0 0 - - -, f 5;
#X obj 70 -151 loadbang;
#X msg 153 -120 thresh 40 60;
#X msg 120 -68 minvel 30;
#X msg -240 838 open do.wav;
#X msg -156 835 open do#.wav;
#X msg -65 832 open ré.wav;
#X msg 17 831 open ré#.wav;
#X msg 104 833 open mi.wav;
#X msg 185 830 open fa.wav;
#X msg 272 828 open fa#.wav;
#X msg 370 829 open sol.wav;
#X msg 485 823 open sol#.wav;
#X msg 591 821 open la.wav;
#X msg 682 818 open la#.wav;
#X msg 800 813 open si.wav;
#X obj 219 164 delay 1000;
#X obj -240 790 r do;
#X obj -156 787 r do#;
#X obj -73 786 r ré;
#X obj 9 785 r ré#;
#X obj 98 784 r mi;
#X obj 181 781 r fa;
#X obj 264 774 r fa#;
#X obj 369 774 r sol;
#X obj 479 772 r sol#;
#X obj 579 769 r la;
#X obj 683 762 r la#;
#X obj 798 761 r si, f 5;
#X obj -176 383 hradio 100 0 0 6 empty empty empty 0 -8 0 10 -258110
-1 -1 0;
#X obj 282 676 tgl 30 0 empty empty empty 8 -8 0 10 -262144 -1 -1 0
1;
#X obj -241 813 spigot;
#X obj -65 808 spigot;
#X obj 105 806 spigot;
#X obj -154 809 spigot;
#X obj 22 808 spigot;
#X obj 185 802 spigot;
#X obj 274 799 spigot;
#X obj 370 801 spigot;
#X obj 481 799 spigot;
#X obj 590 792 spigot;
#X obj 688 787 spigot;
#X obj 803 786 spigot;
#X obj -265 431 s button1;
#X obj 282 653 r button1;
#X obj -264 455 s button2;
#X msg 1695 850 1;
#X obj 1474 1077 readsf~ 2 44100;
#X obj 1561 1103 bng 15 250 50 0 empty empty empty 17 7 0 10 -262144
-1 -1;
#X msg 984 857 1, f 4;
#X msg 1152 854 1;
#X msg 1067 857 1;
#X msg 1398 850 1;
#X msg 2022 837 1;
#X msg 1583 850 1;
#X msg 1809 842 1;
#X msg 1317 852 1;
#X msg 1485 848 1;
#X msg 1237 856 1;
#X msg 1911 846 1;
#X obj 966 789 r do;
#X obj 1050 786 r do#;
#X obj 1133 785 r ré;
#X obj 1215 784 r ré#;
#X obj 1304 783 r mi;
#X obj 1387 780 r fa;
#X obj 1470 773 r fa#;
#X obj 1575 773 r sol;
#X obj 1685 771 r sol#;
#X obj 1785 768 r la;
#X obj 1889 761 r la#;
#X obj 2004 760 r si, f 5;
#X obj 1488 675 tgl 30 0 empty empty empty 8 -8 0 10 -262144 -1 -1
0 1;
#X obj 965 812 spigot;
#X obj 1141 807 spigot;
#X obj 1311 805 spigot;
#X obj 1052 808 spigot;
#X obj 1228 807 spigot;
#X obj 1391 801 spigot;
#X obj 1480 798 spigot;
#X obj 1576 800 spigot;
#X obj 1687 798 spigot;
#X obj 1796 791 spigot;
#X obj 1894 786 spigot;
#X obj 2009 785 spigot;
#X obj 1488 652 r button2;
#X msg 966 837 open do2.wav;
#X msg 1050 834 open do#2.wav;
#X msg 1141 832 open ré2.wav;
#X msg 1223 830 open ré#2.wav;
#X msg 1310 832 open mi2.wav;
#X msg 1391 829 open fa2.wav;
#X msg 1478 827 open fa#2.wav;
#X msg 1576 828 open sol2.wav;
#X msg 1691 822 open sol#2.wav;
#X msg 1797 820 open la2.wav;
#X msg 1888 817 open la#2.wav;
#X msg 2006 812 open si2.wav;
#X obj -176 617 tgl 50 0 empty empty empty 17 7 0 10 -258497 -1 -1
0 1;
#X obj -114 619 tgl 50 0 empty empty empty 17 7 0 10 -258497 -1 -1
0 1;
#X text 451 430 select here;
#X obj 297 1156 *~, f 2;
#X obj 411 1114 line~;
#X msg -172 335 0 500;
#X msg 412 1091 1 1000;
#X obj -48 619 tgl 50 0 empty empty empty 17 7 0 10 -258497 -1 -1 0
1;
#X obj -265 482 s button3;
#X msg 2426 329 1;
#X obj 2172 472 readsf~ 2 44100;
#X obj 2259 494 bng 15 250 50 0 empty empty empty 17 7 0 10 -262144
-1 -1;
#X msg 1715 336 1, f 4;
#X msg 1883 333 1;
#X msg 1798 336 1;
#X msg 2129 329 1;
#X msg 2753 316 1;
#X msg 2314 329 1;
#X msg 2540 321 1;
#X msg 2048 331 1;
#X msg 2216 327 1;
#X msg 1968 335 1;
#X msg 2642 325 1;
#X obj 1697 268 r do;
#X obj 1781 265 r do#;
#X obj 1864 264 r ré;
#X obj 1946 263 r ré#;
#X obj 2035 262 r mi;
#X obj 2118 259 r fa;
#X obj 2201 252 r fa#;
#X obj 2306 252 r sol;
#X obj 2416 250 r sol#;
#X obj 2516 247 r la;
#X obj 2620 240 r la#;
#X obj 2735 239 r si, f 5;
#X obj 2219 154 tgl 30 0 empty empty empty 8 -8 0 10 -262144 -1 -1
0 1;
#X obj 1696 291 spigot;
#X obj 1872 286 spigot;
#X obj 2042 284 spigot;
#X obj 1783 287 spigot;
#X obj 1959 286 spigot;
#X obj 2122 280 spigot;
#X obj 2211 277 spigot;
#X obj 2307 279 spigot;
#X obj 2418 277 spigot;
#X obj 2527 270 spigot;
#X obj 2625 265 spigot;
#X obj 2740 264 spigot;
#X obj 2219 131 r button3;
#X msg 1697 316 open do3.wav;
#X msg 1781 313 open do#3.wav;
#X msg 1872 311 open ré3.wav;
#X msg 1954 309 open ré#3.wav;
#X msg 2041 311 open mi3.wav;
#X msg 2122 308 open fa3.wav;
#X msg 2209 306 open fa#3.wav;
#X msg 2307 307 open sol3.wav;
#X msg 2422 301 open sol#3.wav;
#X msg 2528 299 open la3.wav;
#X msg 2619 296 open la#3.wav;
#X msg 2737 291 open si3.wav;
#X obj 1604 1098 line~;
#X msg 1604 1074 1 1000;
#X obj 2363 504 line~;
#X msg 2364 481 1 1000;
#X obj 1491 1178 dac~;
#X obj 1502 1144 *~, f 2;
#X obj 2229 582 dac~;
#X obj 2240 551 *~;
#X obj 931 61 adc~;
#X floatatom 787 207 5 0 0 0 - - -, f 5;
#X obj 931 93 fiddle~ 1024 1 20 3;
#X obj 878 206 bng 15 250 50 0 empty empty empty 17 7 0 10 -262144
-1 -1;
#X text 742 185 MIDI PITCH Cooked;
#X text 862 185 Attack detected;
#X obj 964 154 mtof;
#X floatatom 964 171 5 0 0 0 - - -, f 5;
#X floatatom 1031 172 5 0 0 0 - - -, f 5;
#X text 1007 148 MIDI Pitch;
#X floatatom 1133 171 5 0 0 0 - - -, f 5;
#X obj 1133 197 - 100;
#X obj 1133 225 vu 15 120 empty empty -1 -8 0 10 -66577 -1 1 0;
#X text 1128 145 Volume (dB);
#X obj 1189 14 route 1 2 3;
#X obj 1101 61 unpack f f;
#X floatatom 1102 101 5 0 0 0 - - -, f 5;
#X floatatom 1159 104 5 0 0 0 - - -, f 5;
#X obj 1214 65 unpack f f;
#X floatatom 1215 105 5 0 0 0 - - -, f 5;
#X floatatom 1272 108 5 0 0 0 - - -, f 5;
#X obj 1339 63 unpack f f;
#X floatatom 1340 103 5 0 0 0 - - -, f 5;
#X floatatom 1397 106 5 0 0 0 - - -, f 5;
#X obj 642 618 s do;
#X obj 686 617 s do#;
#X obj 737 618 s ré;
#X obj 781 617 s ré#;
#X obj 827 618 s mi;
#X obj 864 618 s fa;
#X obj 902 618 s fa#;
#X obj 948 619 s sol;
#X obj 992 620 s sol#;
#X obj 1042 620 s la;
#X obj 1079 621 s la#;
#X obj 1123 621 s si;
#X obj 1135 649 bng 15 250 50 0 empty empty empty 17 7 0 10 -262144
-1 -1;
#X obj 1092 647 bng 15 250 50 0 empty empty empty 17 7 0 10 -262144
-1 -1;
#X obj 1051 649 bng 15 250 50 0 empty empty empty 17 7 0 10 -262144
-1 -1;
#X obj 1006 647 bng 15 250 50 0 empty empty empty 17 7 0 10 -262144
-1 -1;
#X obj 957 647 bng 15 250 50 0 empty empty empty 17 7 0 10 -262144
-1 -1;
#X obj 913 648 bng 15 250 50 0 empty empty empty 17 7 0 10 -262144
-1 -1;
#X obj 871 645 bng 15 250 50 0 empty empty empty 17 7 0 10 -262144
-1 -1;
#X obj 832 643 bng 15 250 50 0 empty empty empty 17 7 0 10 -262144
-1 -1;
#X obj 789 646 bng 15 250 50 0 empty empty empty 17 7 0 10 -262144
-1 -1;
#X obj 743 647 bng 15 250 50 0 empty empty empty 17 7 0 10 -262144
-1 -1;
#X obj 697 646 bng 15 250 50 0 empty empty empty 17 7 0 10 -262144
-1 -1;
#X obj 644 644 bng 15 250 50 0 empty empty empty 17 7 0 10 -262144
-1 -1;
#X obj 797 551 route 0 1 2 3 4 5 6 7 8 9 10 11;
#X text 828 273 0 --> C;
#X text 828 299 1 --> C#;
#X text 828 324 2 --> D;
#X text 829 352 3 --> D#;
#X text 829 378 4 --> E;
#X text 829 403 5 --> F;
#X text 890 274 6 --> F#;
#X text 890 300 7 --> G;
#X text 890 325 8 --> G#;
#X text 890 353 9 --> A;
#X text 891 379 10 --> A#;
#X text 891 404 11 --> B;
#X floatatom 1133 352 5 0 0 0 - - -, f 5;
#X obj 1133 393 tgl 15 0 empty empty empty 17 7 0 10 -262144 -1 -1
1 1;
#X obj 1133 373 > -40;
#X obj 797 527 spigot;
#X obj -172 355 send stopsound;
#X obj 468 1090 receive stopsound;
#X obj 2422 482 receive stopsound;
#X obj 1656 1072 receive stopsound;
#X obj -172 232 bng 100 250 50 0 empty empty empty 17 7 0 10 -262144
-1 -1;
#X text -174 212 Pour arrêter le sample joué à tout moment;
#X text -165 675 son 1;
#X text -104 674 son 2;
#X text -38 676 son 3;
#X text 31 349 Controle des modes du synthé;
#X obj 756 251 * 10000;
#X obj 756 273 % 120000;
#X floatatom 756 319 5 0 0 0 - - -, f 5;
#X obj 756 351 int;
#X floatatom 756 380 5 0 0 0 - - -, f 5;
#X obj 757 297 / 10000;
#X obj 15 620 tgl 50 0 empty empty empty 17 7 0 10 -258497 -1 -1 0
1;
#X text 25 677 son 4;
#X msg 2934 827 1;
#X obj 2680 970 readsf~ 2 44100;
#X obj 2767 992 bng 15 250 50 0 empty empty empty 17 7 0 10 -262144
-1 -1;
#X msg 2223 834 1, f 4;
#X msg 2391 831 1;
#X msg 2306 834 1;
#X msg 2637 827 1;
#X msg 3261 814 1;
#X msg 2822 827 1;
#X msg 3048 819 1;
#X msg 2556 829 1;
#X msg 2724 825 1;
#X msg 2476 833 1;
#X msg 3150 823 1;
#X obj 2205 766 r do;
#X obj 2289 763 r do#;
#X obj 2372 762 r ré;
#X obj 2454 761 r ré#;
#X obj 2543 760 r mi;
#X obj 2626 757 r fa;
#X obj 2709 750 r fa#;
#X obj 2814 750 r sol;
#X obj 2924 748 r sol#;
#X obj 3024 745 r la;
#X obj 3128 738 r la#;
#X obj 3243 737 r si, f 5;
#X obj 2727 652 tgl 30 0 empty empty empty 8 -8 0 10 -262144 -1 -1
0 1;
#X obj 2204 789 spigot;
#X obj 2380 784 spigot;
#X obj 2550 782 spigot;
#X obj 2291 785 spigot;
#X obj 2467 784 spigot;
#X obj 2630 778 spigot;
#X obj 2719 775 spigot;
#X obj 2815 777 spigot;
#X obj 2926 775 spigot;
#X obj 3035 768 spigot;
#X obj 3133 763 spigot;
#X obj 3248 762 spigot;
#X obj 2871 1002 line~;
#X msg 2872 979 1 1000;
#X obj 2737 1080 dac~;
#X obj 2748 1049 *~;
#X obj 2930 980 receive stopsound;
#X obj -264 510 s button4;
#X obj 2727 629 r button4;
#X msg 2205 814 open do4.wav;
#X msg 2289 811 open do#4.wav;
#X msg 2380 809 open ré4.wav;
#X msg 2462 807 open ré#4.wav;
#X msg 2549 809 open mi4.wav;
#X msg 2630 806 open fa4.wav;
#X msg 2717 804 open fa#4.wav;
#X msg 2815 805 open sol4.wav;
#X msg 2931 799 open sol#4.wav;
#X msg 3036 797 open la4.wav;
#X msg 3127 794 open la#4.wav;
#X msg 3245 789 open si4.wav;
#X obj 78 620 tgl 50 0 empty empty empty 17 7 0 10 -258497 -1 -1 0
1;
#X text 88 677 son 5;
#X obj -264 537 s button5;
#X msg 3591 412 1;
#X obj 3337 555 readsf~ 2 44100;
#X obj 3424 577 bng 15 250 50 0 empty empty empty 17 7 0 10 -262144
-1 -1;
#X msg 2880 419 1, f 4;
#X msg 3048 416 1;
#X msg 2963 419 1;
#X msg 3294 412 1;
#X msg 3918 399 1;
#X msg 3479 412 1;
#X msg 3705 404 1;
#X msg 3213 414 1;
#X msg 3381 410 1;
#X msg 3133 418 1;
#X msg 3807 408 1;
#X obj 2862 351 r do;
#X obj 2946 348 r do#;
#X obj 3029 347 r ré;
#X obj 3111 346 r ré#;
#X obj 3200 345 r mi;
#X obj 3283 342 r fa;
#X obj 3366 335 r fa#;
#X obj 3471 335 r sol;
#X obj 3581 333 r sol#;
#X obj 3681 330 r la;
#X obj 3785 323 r la#;
#X obj 3900 322 r si, f 5;
#X obj 3384 237 tgl 30 0 empty empty empty 8 -8 0 10 -262144 -1 -1
0 1;
#X obj 2861 374 spigot;
#X obj 3037 369 spigot;
#X obj 3207 367 spigot;
#X obj 2948 370 spigot;
#X obj 3124 369 spigot;
#X obj 3287 363 spigot;
#X obj 3376 360 spigot;
#X obj 3472 362 spigot;
#X obj 3583 360 spigot;
#X obj 3692 353 spigot;
#X obj 3790 348 spigot;
#X obj 3905 347 spigot;
#X obj 3528 587 line~;
#X msg 3529 564 1 1000;
#X obj 3394 665 dac~;
#X obj 3405 634 *~;
#X obj 3587 565 receive stopsound;
#X obj 3384 214 r button5;
#X msg 2862 399 open do5.wav;
#X msg 2946 396 open do#5.wav;
#X msg 3037 394 open ré5.wav;
#X msg 3119 392 open ré#5.wav;
#X msg 3206 394 open mi5.wav;
#X msg 3287 391 open fa5.wav;
#X msg 3374 389 open fa#5.wav;
#X msg 3472 390 open sol5.wav;
#X msg 3587 384 open sol#5.wav;
#X msg 3693 382 open la5.wav;
#X msg 3784 380 open la#5.wav;
#X msg 3902 374 open si5.wav;
#X text 396 679 SON 1;
#X text 1575 654 SON 2;
#X text 2323 151 SON 3;
#X text 2834 664 SON 4;
#X text 3502 210 SON 5;
#X obj -176 572 route 0 1 2 3 4 5;
#X msg 4278 959 1;
#X obj 3991 1029 readsf~ 2 44100;
#X obj 4078 1051 bng 15 250 50 0 empty empty empty 17 7 0 10 -262144
-1 -1;
#X msg 3567 966 1, f 4;
#X msg 3735 963 1;
#X msg 3650 966 1;
#X msg 3981 959 1;
#X msg 4584 953 1;
#X msg 4166 959 1;
#X msg 4392 951 1;
#X msg 3900 961 1;
#X msg 4068 957 1;
#X msg 3820 965 1;
#X msg 4494 955 1;
#X obj 3549 898 r do;
#X obj 3633 895 r do#;
#X obj 3716 894 r ré;
#X obj 3798 893 r ré#;
#X obj 3887 892 r mi;
#X obj 3970 889 r fa;
#X obj 4053 882 r fa#;
#X obj 4158 882 r sol;
#X obj 4268 880 r sol#;
#X obj 4368 877 r la;
#X obj 4472 870 r la#;
#X obj 4566 876 r si, f 5;
#X obj 4087 763 tgl 30 0 empty empty empty 8 -8 0 10 -262144 -1 -1
0 1;
#X obj 3548 921 spigot;
#X obj 3724 916 spigot;
#X obj 3894 914 spigot;
#X obj 3635 917 spigot;
#X obj 3811 916 spigot;
#X obj 3974 910 spigot;
#X obj 4063 907 spigot;
#X obj 4159 909 spigot;
#X obj 4270 907 spigot;
#X obj 4379 900 spigot;
#X obj 4477 895 spigot;
#X obj 4571 901 spigot;
#X obj 4182 1061 line~;
#X msg 4183 1038 1 1000;
#X obj 4048 1139 dac~;
#X obj 4059 1108 *~;
#X obj 4241 1039 receive stopsound;
#X obj 4087 740 r button6;
#X msg 3549 946 open do6.wav;
#X msg 3633 943 open do#6.wav;
#X msg 3724 941 open ré6.wav;
#X msg 3806 939 open ré#6.wav;
#X msg 3893 941 open mi6.wav;
#X msg 3974 938 open fa6.wav;
#X msg 4061 936 open fa#6.wav;
#X msg 4159 937 open sol6.wav;
#X msg 4274 931 open sol#6.wav;
#X msg 4380 929 open la6.wav;
#X msg 4471 927 open la#6.wav;
#X msg 4568 928 open si6.wav;
#X text 3995 769 SON 6 -- BASS;
#X text 350 504 BASSE;
#X obj 141 620 tgl 50 0 empty empty empty 17 7 0 10 -258497 -1 -1 0
1;
#X obj -264 567 s button6;
#X text 151 677 son 6;
#X text -60 498 TREMOLO;
#X text -166 496 AMBIANCE 1;
#X text 121 501 AMBIANCE INTRO;
#X text 238 498 AMBIANCE 2;
#X text 37 497 LEAD/MUSE;
#X connect 0 0 39 0;
#X connect 1 0 4 0;
#X connect 1 0 2 0;
#X connect 2 0 3 0;
#X connect 2 0 26 0;
#X connect 2 0 28 0;
#X connect 2 1 32 0;
#X connect 3 0 22 0;
#X connect 4 0 5 0;
#X connect 5 0 29 0;
#X connect 6 0 8 0;
#X connect 7 0 25 0;
#X connect 8 0 142 0;
#X connect 8 1 142 0;
#X connect 8 2 10 0;
#X connect 11 0 8 0;
#X connect 12 0 8 0;
#X connect 13 0 8 0;
#X connect 14 0 8 0;
#X connect 15 0 8 0;
#X connect 16 0 8 0;
#X connect 17 0 8 0;
#X connect 18 0 8 0;
#X connect 19 0 8 0;
#X connect 20 0 8 0;
#X connect 21 0 8 0;
#X connect 22 0 7 0;
#X connect 23 2 57 0;
#X connect 24 0 57 1;
#X connect 25 0 23 0;
#X connect 26 0 33 0;
#X connect 26 0 35 0;
#X connect 27 0 3 0;
#X connect 29 0 30 0;
#X connect 30 0 31 0;
#X connect 32 0 34 0;
#X connect 34 0 33 0;
#X connect 35 0 3 0;
#X connect 36 0 37 0;
#X connect 37 0 38 0;
#X connect 39 1 40 0;
#X connect 40 1 41 0;
#X connect 42 0 43 0;
#X connect 42 0 44 0;
#X connect 43 0 39 0;
#X connect 44 0 39 0;
#X connect 45 0 8 0;
#X connect 46 0 8 0;
#X connect 47 0 8 0;
#X connect 48 0 8 0;
#X connect 49 0 8 0;
#X connect 50 0 8 0;
#X connect 51 0 8 0;
#X connect 52 0 8 0;
#X connect 53 0 8 0;
#X connect 54 0 8 0;
#X connect 55 0 8 0;
#X connect 56 0 8 0;
#X connect 57 0 27 0;
#X connect 58 0 72 0;
#X connect 59 0 75 0;
#X connect 60 0 73 0;
#X connect 61 0 76 0;
#X connect 62 0 74 0;
#X connect 63 0 77 0;
#X connect 64 0 78 0;
#X connect 65 0 79 0;
#X connect 66 0 80 0;
#X connect 67 0 81 0;
#X connect 68 0 82 0;
#X connect 69 0 83 0;
#X connect 70 0 414 0;
#X connect 71 0 72 1;
#X connect 71 0 73 1;
#X connect 71 0 74 1;
#X connect 71 0 75 1;
#X connect 71 0 76 1;
#X connect 71 0 77 1;
#X connect 71 0 78 1;
#X connect 71 0 79 1;
#X connect 71 0 80 1;
#X connect 71 0 81 1;
#X connect 71 0 82 1;
#X connect 71 0 83 1;
#X connect 72 0 45 0;
#X connect 72 0 11 0;
#X connect 72 0 145 0;
#X connect 73 0 47 0;
#X connect 73 0 12 0;
#X connect 73 0 145 0;
#X connect 74 0 49 0;
#X connect 74 0 18 0;
#X connect 74 0 145 0;
#X connect 75 0 46 0;
#X connect 75 0 13 0;
#X connect 75 0 145 0;
#X connect 76 0 48 0;
#X connect 76 0 20 0;
#X connect 76 0 145 0;
#X connect 77 0 50 0;
#X connect 77 0 14 0;
#X connect 77 0 145 0;
#X connect 78 0 51 0;
#X connect 78 0 19 0;
#X connect 78 0 145 0;
#X connect 79 0 52 0;
#X connect 79 0 16 0;
#X connect 79 0 145 0;
#X connect 80 0 53 0;
#X connect 80 0 6 0;
#X connect 80 0 145 0;
#X connect 81 0 54 0;
#X connect 81 0 17 0;
#X connect 81 0 145 0;
#X connect 82 0 55 0;
#X connect 82 0 21 0;
#X connect 82 0 145 0;
#X connect 83 0 56 0;
#X connect 83 0 15 0;
#X connect 83 0 145 0;
#X connect 85 0 71 0;
#X connect 87 0 88 0;
#X connect 88 0 205 0;
#X connect 88 1 205 0;
#X connect 88 2 89 0;
#X connect 90 0 88 0;
#X connect 91 0 88 0;
#X connect 92 0 88 0;
#X connect 93 0 88 0;
#X connect 94 0 88 0;
#X connect 95 0 88 0;
#X connect 96 0 88 0;
#X connect 97 0 88 0;
#X connect 98 0 88 0;
#X connect 99 0 88 0;
#X connect 100 0 88 0;
#X connect 101 0 114 0;
#X connect 102 0 117 0;
#X connect 103 0 115 0;
#X connect 104 0 118 0;
#X connect 105 0 116 0;
#X connect 106 0 119 0;
#X connect 107 0 120 0;
#X connect 108 0 121 0;
#X connect 109 0 122 0;
#X connect 110 0 123 0;
#X connect 111 0 124 0;
#X connect 112 0 125 0;
#X connect 113 0 114 1;
#X connect 113 0 115 1;
#X connect 113 0 116 1;
#X connect 113 0 117 1;
#X connect 113 0 118 1;
#X connect 113 0 119 1;
#X connect 113 0 120 1;
#X connect 113 0 121 1;
#X connect 113 0 122 1;
#X connect 113 0 123 1;
#X connect 113 0 124 1;
#X connect 113 0 125 1;
#X connect 114 0 127 0;
#X connect 114 0 90 0;
#X connect 114 0 201 0;
#X connect 115 0 129 0;
#X connect 115 0 91 0;
#X connect 115 0 201 0;
#X connect 116 0 131 0;
#X connect 116 0 97 0;
#X connect 116 0 201 0;
#X connect 117 0 128 0;
#X connect 117 0 92 0;
#X connect 117 0 201 0;
#X connect 118 0 130 0;
#X connect 118 0 99 0;
#X connect 118 0 201 0;
#X connect 119 0 132 0;
#X connect 119 0 93 0;
#X connect 119 0 201 0;
#X connect 120 0 133 0;
#X connect 120 0 98 0;
#X connect 120 0 201 0;
#X connect 121 0 134 0;
#X connect 121 0 95 0;
#X connect 121 0 201 0;
#X connect 122 0 135 0;
#X connect 122 0 87 0;
#X connect 122 0 201 0;
#X connect 123 0 136 0;
#X connect 123 0 96 0;
#X connect 123 0 201 0;
#X connect 124 0 137 0;
#X connect 124 0 100 0;
#X connect 124 0 201 0;
#X connect 125 0 138 0;
#X connect 125 0 94 0;
#X connect 125 0 201 0;
#X connect 126 0 113 0;
#X connect 127 0 88 0;
#X connect 128 0 88 0;
#X connect 129 0 88 0;
#X connect 130 0 88 0;
#X connect 131 0 88 0;
#X connect 132 0 88 0;
#X connect 133 0 88 0;
#X connect 134 0 88 0;
#X connect 135 0 88 0;
#X connect 136 0 88 0;
#X connect 137 0 88 0;
#X connect 138 0 88 0;
#X connect 142 0 9 1;
#X connect 142 0 9 0;
#X connect 143 0 142 1;
#X connect 144 0 273 0;
#X connect 145 0 143 0;
#X connect 148 0 149 0;
#X connect 149 0 207 0;
#X connect 149 1 207 0;
#X connect 149 2 150 0;
#X connect 151 0 149 0;
#X connect 152 0 149 0;
#X connect 153 0 149 0;
#X connect 154 0 149 0;
#X connect 155 0 149 0;
#X connect 156 0 149 0;
#X connect 157 0 149 0;
#X connect 158 0 149 0;
#X connect 159 0 149 0;
#X connect 160 0 149 0;
#X connect 161 0 149 0;
#X connect 162 0 175 0;
#X connect 163 0 178 0;
#X connect 164 0 176 0;
#X connect 165 0 179 0;
#X connect 166 0 177 0;
#X connect 167 0 180 0;
#X connect 168 0 181 0;
#X connect 169 0 182 0;
#X connect 170 0 183 0;
#X connect 171 0 184 0;
#X connect 172 0 185 0;
#X connect 173 0 186 0;
#X connect 174 0 175 1;
#X connect 174 0 176 1;
#X connect 174 0 177 1;
#X connect 174 0 178 1;
#X connect 174 0 179 1;
#X connect 174 0 180 1;
#X connect 174 0 181 1;
#X connect 174 0 182 1;
#X connect 174 0 183 1;
#X connect 174 0 184 1;
#X connect 174 0 185 1;
#X connect 174 0 186 1;
#X connect 175 0 188 0;
#X connect 175 0 151 0;
#X connect 175 0 203 0;
#X connect 176 0 190 0;
#X connect 176 0 152 0;
#X connect 176 0 203 0;
#X connect 177 0 192 0;
#X connect 177 0 158 0;
#X connect 177 0 203 0;
#X connect 178 0 189 0;
#X connect 178 0 153 0;
#X connect 178 0 203 0;
#X connect 179 0 191 0;
#X connect 179 0 160 0;
#X connect 179 0 203 0;
#X connect 180 0 193 0;
#X connect 180 0 154 0;
#X connect 180 0 203 0;
#X connect 181 0 194 0;
#X connect 181 0 159 0;
#X connect 181 0 203 0;
#X connect 182 0 195 0;
#X connect 182 0 156 0;
#X connect 182 0 203 0;
#X connect 183 0 196 0;
#X connect 183 0 148 0;
#X connect 183 0 203 0;
#X connect 184 0 197 0;
#X connect 184 0 157 0;
#X connect 184 0 203 0;
#X connect 185 0 198 0;
#X connect 185 0 161 0;
#X connect 185 0 203 0;
#X connect 186 0 199 0;
#X connect 186 0 155 0;
#X connect 186 0 203 0;
#X connect 187 0 174 0;
#X connect 188 0 149 0;
#X connect 189 0 149 0;
#X connect 190 0 149 0;
#X connect 191 0 149 0;
#X connect 192 0 149 0;
#X connect 193 0 149 0;
#X connect 194 0 149 0;
#X connect 195 0 149 0;
#X connect 196 0 149 0;
#X connect 197 0 149 0;
#X connect 198 0 149 0;
#X connect 199 0 149 0;
#X connect 200 0 205 1;
#X connect 201 0 200 0;
#X connect 202 0 207 1;
#X connect 203 0 202 0;
#X connect 205 0 204 1;
#X connect 205 0 204 0;
#X connect 207 0 206 1;
#X connect 207 0 206 0;
#X connect 208 0 210 0;
#X connect 208 1 210 0;
#X connect 209 0 283 0;
#X connect 210 0 209 0;
#X connect 210 1 211 0;
#X connect 210 2 214 0;
#X connect 210 2 216 0;
#X connect 210 3 218 0;
#X connect 210 4 222 0;
#X connect 214 0 215 0;
#X connect 218 0 219 0;
#X connect 219 0 220 0;
#X connect 220 0 269 0;
#X connect 222 0 223 0;
#X connect 222 1 226 0;
#X connect 222 2 229 0;
#X connect 223 0 224 0;
#X connect 223 1 225 0;
#X connect 226 0 227 0;
#X connect 226 1 228 0;
#X connect 229 0 230 0;
#X connect 229 1 231 0;
#X connect 256 0 232 0;
#X connect 256 0 255 0;
#X connect 256 1 233 0;
#X connect 256 1 254 0;
#X connect 256 2 234 0;
#X connect 256 2 253 0;
#X connect 256 3 235 0;
#X connect 256 3 252 0;
#X connect 256 4 236 0;
#X connect 256 4 251 0;
#X connect 256 5 237 0;
#X connect 256 5 250 0;
#X connect 256 6 238 0;
#X connect 256 6 249 0;
#X connect 256 7 239 0;
#X connect 256 7 248 0;
#X connect 256 8 240 0;
#X connect 256 8 247 0;
#X connect 256 9 241 0;
#X connect 256 9 246 0;
#X connect 256 10 242 0;
#X connect 256 10 245 0;
#X connect 256 11 243 0;
#X connect 256 11 244 0;
#X connect 269 0 271 0;
#X connect 270 0 272 1;
#X connect 271 0 270 0;
#X connect 272 0 256 0;
#X connect 274 0 143 0;
#X connect 275 0 202 0;
#X connect 276 0 200 0;
#X connect 277 0 144 0;
#X connect 283 0 284 0;
#X connect 284 0 288 0;
#X connect 285 0 286 0;
#X connect 286 0 287 0;
#X connect 287 0 272 0;
#X connect 288 0 285 0;
#X connect 291 0 292 0;
#X connect 292 0 333 0;
#X connect 292 1 333 0;
#X connect 292 2 293 0;
#X connect 294 0 292 0;
#X connect 295 0 292 0;
#X connect 296 0 292 0;
#X connect 297 0 292 0;
#X connect 298 0 292 0;
#X connect 299 0 292 0;
#X connect 300 0 292 0;
#X connect 301 0 292 0;
#X connect 302 0 292 0;
#X connect 303 0 292 0;
#X connect 304 0 292 0;
#X connect 305 0 318 0;
#X connect 306 0 321 0;
#X connect 307 0 319 0;
#X connect 308 0 322 0;
#X connect 309 0 320 0;
#X connect 310 0 323 0;
#X connect 311 0 324 0;
#X connect 312 0 325 0;
#X connect 313 0 326 0;
#X connect 314 0 327 0;
#X connect 315 0 328 0;
#X connect 316 0 329 0;
#X connect 317 0 318 1;
#X connect 317 0 319 1;
#X connect 317 0 320 1;
#X connect 317 0 321 1;
#X connect 317 0 322 1;
#X connect 317 0 323 1;
#X connect 317 0 324 1;
#X connect 317 0 325 1;
#X connect 317 0 326 1;
#X connect 317 0 327 1;
#X connect 317 0 328 1;
#X connect 317 0 329 1;
#X connect 318 0 337 0;
#X connect 318 0 294 0;
#X connect 318 0 331 0;
#X connect 319 0 339 0;
#X connect 319 0 295 0;
#X connect 319 0 331 0;
#X connect 320 0 341 0;
#X connect 320 0 301 0;
#X connect 320 0 331 0;
#X connect 321 0 338 0;
#X connect 321 0 296 0;
#X connect 321 0 331 0;
#X connect 322 0 340 0;
#X connect 322 0 303 0;
#X connect 322 0 331 0;
#X connect 323 0 342 0;
#X connect 323 0 297 0;
#X connect 323 0 331 0;
#X connect 324 0 343 0;
#X connect 324 0 302 0;
#X connect 324 0 331 0;
#X connect 325 0 344 0;
#X connect 325 0 299 0;
#X connect 325 0 331 0;
#X connect 326 0 345 0;
#X connect 326 0 291 0;
#X connect 326 0 331 0;
#X connect 327 0 346 0;
#X connect 327 0 300 0;
#X connect 327 0 331 0;
#X connect 328 0 347 0;
#X connect 328 0 304 0;
#X connect 328 0 331 0;
#X connect 329 0 348 0;
#X connect 329 0 298 0;
#X connect 329 0 331 0;
#X connect 330 0 333 1;
#X connect 331 0 330 0;
#X connect 333 0 332 1;
#X connect 333 0 332 0;
#X connect 334 0 330 0;
#X connect 336 0 317 0;
#X connect 337 0 292 0;
#X connect 338 0 292 0;
#X connect 339 0 292 0;
#X connect 340 0 292 0;
#X connect 341 0 292 0;
#X connect 342 0 292 0;
#X connect 343 0 292 0;
#X connect 344 0 292 0;
#X connect 345 0 292 0;
#X connect 346 0 292 0;
#X connect 347 0 292 0;
#X connect 348 0 292 0;
#X connect 352 0 353 0;
#X connect 353 0 394 0;
#X connect 353 1 394 0;
#X connect 353 2 354 0;
#X connect 355 0 353 0;
#X connect 356 0 353 0;
#X connect 357 0 353 0;
#X connect 358 0 353 0;
#X connect 359 0 353 0;
#X connect 360 0 353 0;
#X connect 361 0 353 0;
#X connect 362 0 353 0;
#X connect 363 0 353 0;
#X connect 364 0 353 0;
#X connect 365 0 353 0;
#X connect 366 0 379 0;
#X connect 367 0 382 0;
#X connect 368 0 380 0;
#X connect 369 0 383 0;
#X connect 370 0 381 0;
#X connect 371 0 384 0;
#X connect 372 0 385 0;
#X connect 373 0 386 0;
#X connect 374 0 387 0;
#X connect 375 0 388 0;
#X connect 376 0 389 0;
#X connect 377 0 390 0;
#X connect 378 0 379 1;
#X connect 378 0 380 1;
#X connect 378 0 381 1;
#X connect 378 0 382 1;
#X connect 378 0 383 1;
#X connect 378 0 384 1;
#X connect 378 0 385 1;
#X connect 378 0 386 1;
#X connect 378 0 387 1;
#X connect 378 0 388 1;
#X connect 378 0 389 1;
#X connect 378 0 390 1;
#X connect 379 0 397 0;
#X connect 379 0 355 0;
#X connect 379 0 392 0;
#X connect 380 0 399 0;
#X connect 380 0 356 0;
#X connect 380 0 392 0;
#X connect 381 0 401 0;
#X connect 381 0 362 0;
#X connect 381 0 392 0;
#X connect 382 0 398 0;
#X connect 382 0 357 0;
#X connect 382 0 392 0;
#X connect 383 0 400 0;
#X connect 383 0 364 0;
#X connect 383 0 392 0;
#X connect 384 0 402 0;
#X connect 384 0 358 0;
#X connect 384 0 392 0;
#X connect 385 0 403 0;
#X connect 385 0 363 0;
#X connect 385 0 392 0;
#X connect 386 0 404 0;
#X connect 386 0 360 0;
#X connect 386 0 392 0;
#X connect 387 0 405 0;
#X connect 387 0 352 0;
#X connect 387 0 392 0;
#X connect 388 0 406 0;
#X connect 388 0 361 0;
#X connect 388 0 392 0;
#X connect 389 0 407 0;
#X connect 389 0 365 0;
#X connect 389 0 392 0;
#X connect 390 0 408 0;
#X connect 390 0 359 0;
#X connect 390 0 392 0;
#X connect 391 0 394 1;
#X connect 392 0 391 0;
#X connect 394 0 393 1;
#X connect 394 0 393 0;
#X connect 395 0 391 0;
#X connect 396 0 378 0;
#X connect 397 0 353 0;
#X connect 398 0 353 0;
#X connect 399 0 353 0;
#X connect 400 0 353 0;
#X connect 401 0 353 0;
#X connect 402 0 353 0;
#X connect 403 0 353 0;
#X connect 404 0 353 0;
#X connect 405 0 353 0;
#X connect 406 0 353 0;
#X connect 407 0 353 0;
#X connect 408 0 353 0;
#X connect 414 0 84 0;
#X connect 414 0 139 0;
#X connect 414 1 86 0;
#X connect 414 1 140 0;
#X connect 414 2 146 0;
#X connect 414 2 147 0;
#X connect 414 3 289 0;
#X connect 414 3 335 0;
#X connect 414 4 349 0;
#X connect 414 4 351 0;
#X connect 414 5 475 0;
#X connect 414 5 474 0;
#X connect 415 0 416 0;
#X connect 416 0 457 0;
#X connect 416 1 457 0;
#X connect 416 2 417 0;
#X connect 418 0 416 0;
#X connect 419 0 416 0;
#X connect 420 0 416 0;
#X connect 421 0 416 0;
#X connect 422 0 416 0;
#X connect 423 0 416 0;
#X connect 424 0 416 0;
#X connect 425 0 416 0;
#X connect 426 0 416 0;
#X connect 427 0 416 0;
#X connect 428 0 416 0;
#X connect 429 0 442 0;
#X connect 430 0 445 0;
#X connect 431 0 443 0;
#X connect 432 0 446 0;
#X connect 433 0 444 0;
#X connect 434 0 447 0;
#X connect 435 0 448 0;
#X connect 436 0 449 0;
#X connect 437 0 450 0;
#X connect 438 0 451 0;
#X connect 439 0 452 0;
#X connect 440 0 453 0;
#X connect 441 0 442 1;
#X connect 441 0 443 1;
#X connect 441 0 444 1;
#X connect 441 0 445 1;
#X connect 441 0 446 1;
#X connect 441 0 447 1;
#X connect 441 0 448 1;
#X connect 441 0 449 1;
#X connect 441 0 450 1;
#X connect 441 0 451 1;
#X connect 441 0 452 1;
#X connect 441 0 453 1;
#X connect 442 0 460 0;
#X connect 442 0 418 0;
#X connect 442 0 455 0;
#X connect 443 0 462 0;
#X connect 443 0 419 0;
#X connect 443 0 455 0;
#X connect 444 0 464 0;
#X connect 444 0 425 0;
#X connect 444 0 455 0;
#X connect 445 0 461 0;
#X connect 445 0 420 0;
#X connect 445 0 455 0;
#X connect 446 0 463 0;
#X connect 446 0 427 0;
#X connect 446 0 455 0;
#X connect 447 0 465 0;
#X connect 447 0 421 0;
#X connect 447 0 455 0;
#X connect 448 0 466 0;
#X connect 448 0 426 0;
#X connect 448 0 455 0;
#X connect 449 0 467 0;
#X connect 449 0 423 0;
#X connect 449 0 455 0;
#X connect 450 0 468 0;
#X connect 450 0 415 0;
#X connect 450 0 455 0;
#X connect 451 0 469 0;
#X connect 451 0 424 0;
#X connect 451 0 455 0;
#X connect 452 0 470 0;
#X connect 452 0 428 0;
#X connect 452 0 455 0;
#X connect 453 0 471 0;
#X connect 453 0 422 0;
#X connect 453 0 455 0;
#X connect 454 0 457 1;
#X connect 455 0 454 0;
#X connect 457 0 456 1;
#X connect 457 0 456 0;
#X connect 458 0 454 0;
#X connect 459 0 441 0;
#X connect 460 0 416 0;
#X connect 461 0 416 0;
#X connect 462 0 416 0;
#X connect 463 0 416 0;
#X connect 464 0 416 0;
#X connect 465 0 416 0;
#X connect 466 0 416 0;
#X connect 467 0 416 0;
#X connect 468 0 416 0;
#X connect 469 0 416 0;
#X connect 470 0 416 0;
#X connect 471 0 416 0;
